<svg width="2500" height="2500" viewBox="0 0 2500 2500" fill="none" xmlns="http://www.w3.org/2000/svg">
  <path d="M1250 2500C1940.36 2500 2500 1940.36 2500 1250C2500 559.644 1940.36 0 1250 0C559.644 0 0 559.644 0 1250C0 1940.36 559.644 2500 1250 2500Z" fill="#0052FF"/>
  <path d="M1250 1937.5C1629.7 1937.5 1937.5 1629.7 1937.5 1250C1937.5 870.304 1629.7 562.5 1250 562.5C870.304 562.5 562.5 870.304 562.5 1250C562.5 1629.7 870.304 1937.5 1250 1937.5Z" fill="white"/>
  <path d="M1041.67 1145.83H1458.33V1354.17H1041.67V1145.83Z" fill="#0052FF"/>
</svg>